# xmcd
# Copyright (C) 1995-1998 Ti Kan
#
# Track frame offsets:
#       150
#       14842
#       36330
#       56052
#       70072
#       92232
#       111495
#       139512
#       159765
#       175747
#       193292
#       216157
#       239662
#       259592
#       281347
#       303272
#
# Disc length: 4300 seconds
#
# Revision: 0
# Processed by: cddbd v1.5.2PL0 Copyright (c) Steve Scherf et al.
# Submitted via: CD-Import v1.0
#
DISCID=eb10ca10
DTITLE=Die Fantastischen Vier  - Unplugged
DYEAR=1900
DGENRE=
TTITLE0=Neues Land
TTITLE1=Die Stadt Die Es Nicht Gibt
TTITLE2=Der Picknicker
TTITLE3=Jetzt Geht's Ab
TTITLE4=Hammer
TTITLE5=Raus
TTITLE6=Millionen Legionen
TTITLE7=Le Smou
TTITLE8=Ganz Normal
TTITLE9=Sie Ist Weg
TTITLE10=Tag Am Meer
TTITLE11=Weiter Als Du Denkst
TTITLE12=Konsum
TTITLE13=Buenos Dias Messias
TTITLE14=Schizophren
TTITLE15=Mfg
EXTD=
EXTT0=
EXTT1=
EXTT2=
EXTT3=
EXTT4=
EXTT5=
EXTT6=
EXTT7=
EXTT8=
EXTT9=
EXTT10=
EXTT11=
EXTT12=
EXTT13=
EXTT14=
EXTT15=
PLAYORDER=
